<svg xmlns="http://www.w3.org/2000/svg" viewBox="0 0 32 32" fill="none">
  <rect width="32" height="32" rx="7" fill="#15181d"/>
  <path
    d="M14.25 7.5a1.75 1.75 0 1 1 3.5 0"
    stroke="#d4ad5a"
    stroke-width="1.75"
    stroke-linecap="round"
  />
  <rect x="13" y="7.25" width="6" height="2.5" rx="1.25" fill="#d4ad5a"/>
  <path
    d="M11 10.2h10c.2 5.6.9 10.2 3.6 13.1H7.4C10.1 20.4 10.8 15.8 11 10.2Z"
    fill="#d4ad5a"
  />
  <path
    d="M6.6 23.3h18.8c0 1.1-.9 2-2 2H8.6c-1.1 0-2-.9-2-2Z"
    fill="#d4ad5a"
  />
  <path
    d="M12.6 11.2c.15 4.6-.35 8.8-1.7 11.4"
    stroke="#e8c98a"
    stroke-width="1.35"
    stroke-linecap="round"
    opacity=".4"
  />
  <circle cx="16" cy="27" r="1.85" fill="#6bc49a"/>
</svg>
